<svg id="icons8-linkedin-480" xmlns="http://www.w3.org/2000/svg" width="33.156" height="32.931" viewBox="0 0 33.156 32.931">
  <path id="icons8-linkedin-480-2" data-name="icons8-linkedin-480" d="M32.472,3H6.684A3.671,3.671,0,0,0,3,6.659V32.272a3.671,3.671,0,0,0,3.684,3.659H32.472a3.671,3.671,0,0,0,3.684-3.659V6.659A3.671,3.671,0,0,0,32.472,3ZM14.052,28.613H9.4V15.806h4.647ZM11.646,13.459a2.195,2.195,0,0,1-2.369-2.2,2.246,2.246,0,0,1,2.525-2.2,2.195,2.195,0,0,1,2.369,2.2A2.246,2.246,0,0,1,11.646,13.459ZM30.63,28.613h-4.5v-7c0-1.936-1.2-2.382-1.649-2.382s-1.949.3-1.949,2.382v7H17.887V15.806h4.647v1.787c.6-1.043,1.8-1.787,4.047-1.787s4.049,1.787,4.049,5.807Z" transform="translate(-3 -3)" fill="#685a73"/>
</svg>
